<svg width="42" height="42" viewBox="0 0 42 42" fill="none" xmlns="http://www.w3.org/2000/svg">
<path d="M21.6562 3.9375C17.3065 3.94228 13.1363 5.67232 10.0606 8.74806C6.98482 11.8238 5.25478 15.994 5.25 20.3438V34.125C5.25 34.8212 5.52656 35.4889 6.01884 35.9812C6.51113 36.4734 7.17881 36.75 7.875 36.75H21.6562C26.0075 36.75 30.1805 35.0215 33.2572 31.9447C36.334 28.868 38.0625 24.695 38.0625 20.3438C38.0625 15.9925 36.334 11.8195 33.2572 8.74278C30.1805 5.66601 26.0075 3.9375 21.6562 3.9375ZM21.6562 34.125H7.875V20.3438C7.875 17.6181 8.68326 14.9536 10.1976 12.6873C11.7119 10.421 13.8642 8.65461 16.3824 7.61154C18.9006 6.56846 21.6715 6.29555 24.3448 6.8273C27.0181 7.35906 29.4737 8.67159 31.4011 10.5989C33.3284 12.5263 34.6409 14.9819 35.1727 17.6552C35.7045 20.3285 35.4315 23.0994 34.3885 25.6176C33.3454 28.1358 31.579 30.2881 29.3127 31.8024C27.0464 33.3167 24.3819 34.125 21.6562 34.125Z" fill="white"/>
</svg>
