<svg width="42" height="42" viewBox="0 0 42 42" fill="none" xmlns="http://www.w3.org/2000/svg">
<g clip-path="url(#clip0_4200_1091)">
<path d="M21 3.9375V38.0625" stroke="white" stroke-width="2" stroke-linecap="round" stroke-linejoin="round"/>
<path d="M30.1875 14.4375C30.1875 13.5757 30.0178 12.7223 29.688 11.9261C29.3582 11.1299 28.8748 10.4065 28.2654 9.79711C27.656 9.18773 26.9326 8.70434 26.1364 8.37454C25.3402 8.04474 24.4868 7.875 23.625 7.875H18.375C16.6345 7.875 14.9653 8.5664 13.7346 9.79711C12.5039 11.0278 11.8125 12.697 11.8125 14.4375C11.8125 16.178 12.5039 17.8472 13.7346 19.0779C14.9653 20.3086 16.6345 21 18.375 21H24.9375C26.678 21 28.3472 21.6914 29.5779 22.9221C30.8086 24.1528 31.5 25.822 31.5 27.5625C31.5 29.303 30.8086 30.9722 29.5779 32.2029C28.3472 33.4336 26.678 34.125 24.9375 34.125H17.0625C15.322 34.125 13.6528 33.4336 12.4221 32.2029C11.1914 30.9722 10.5 29.303 10.5 27.5625" stroke="white" stroke-width="2" stroke-linecap="round" stroke-linejoin="round"/>
</g>
<defs>
<clipPath id="clip0_4200_1091">
<rect width="42" height="42" fill="white"/>
</clipPath>
</defs>
</svg>
