<svg width="42" height="42" viewBox="0 0 42 42" fill="none" xmlns="http://www.w3.org/2000/svg">
<path d="M41.7211 17.704L37.5342 9.32692C37.38 9.01859 37.1665 8.74367 36.906 8.51784C36.6455 8.29202 36.3431 8.11973 36.016 8.0108C35.6889 7.90187 35.3435 7.85844 34.9996 7.88299C34.6558 7.90754 34.3201 7.99958 34.0118 8.15387L29.9316 10.1932L21.3363 7.91927C21.1158 7.86187 20.8842 7.86187 20.6637 7.91927L12.0684 10.1932L7.98819 8.15387C7.67989 7.99958 7.34421 7.90754 7.00033 7.88299C6.65645 7.85844 6.3111 7.90187 5.98401 8.0108C5.65691 8.11973 5.35448 8.29202 5.09398 8.51784C4.83348 8.74367 4.62001 9.01859 4.46577 9.32692L0.278895 17.7023C0.124605 18.0106 0.0325561 18.3463 0.00800661 18.6902C-0.0165429 19.0341 0.0268874 19.3794 0.135817 19.7065C0.244747 20.0336 0.417043 20.336 0.642866 20.5965C0.868688 20.857 1.14361 21.0705 1.45194 21.2247L5.88163 23.4412L14.9855 29.943C15.1196 30.0385 15.2704 30.108 15.4301 30.1481L25.9301 32.7731C26.15 32.8282 26.3804 32.8255 26.5989 32.7651C26.8174 32.7047 27.0166 32.5888 27.1769 32.4286L36.2119 23.392L40.5464 21.2247C41.1687 20.9132 41.6418 20.3674 41.8617 19.7072C42.0817 19.047 42.0305 18.3264 41.7194 17.704H41.7211ZM32.7157 23.1787L27.0703 18.6572C26.8174 18.4546 26.4985 18.3528 26.175 18.3713C25.8515 18.3897 25.5463 18.5272 25.3181 18.7572C22.3962 21.7005 19.1395 21.3281 17.0625 20.0156L24.1566 13.125H29.3754L33.8395 22.0516L32.7157 23.1787ZM6.8135 10.5L10.1719 12.1767L5.97679 20.5521L2.62499 18.877L6.8135 10.5ZM25.8448 30.0447L16.3111 27.6625L8.23921 21.8974L12.833 12.7099L21 10.5459L22.6078 10.9708L15.225 18.1371L15.2119 18.1518C14.934 18.4298 14.722 18.7665 14.5916 19.1373C14.4613 19.5081 14.4158 19.9034 14.4586 20.2941C14.5015 20.6848 14.6315 21.0608 14.8391 21.3946C15.0467 21.7283 15.3266 22.0111 15.6581 22.2222C19.0312 24.3764 23.1016 24.0269 26.3074 21.4019L30.8437 25.0457L25.8448 30.0447ZM36.0166 20.5504L31.8298 12.1832L35.1865 10.5L39.375 18.877L36.0166 20.5504ZM21.6201 35.7541C21.5492 36.0378 21.3856 36.2897 21.1553 36.4698C20.925 36.6499 20.6411 36.7479 20.3487 36.7483C20.2408 36.7482 20.1334 36.735 20.0287 36.709L13.1923 34.9994C13.0324 34.96 12.8815 34.8904 12.7476 34.7943L8.4246 31.7067C8.15879 31.498 7.98372 31.1948 7.93586 30.8602C7.888 30.5257 7.97103 30.1856 8.16766 29.9107C8.3643 29.6359 8.65937 29.4474 8.99145 29.3847C9.32353 29.3219 9.66702 29.3897 9.95038 29.5739L14.07 32.5172L20.6719 34.1643C21.0095 34.2488 21.2997 34.4639 21.4788 34.7623C21.6579 35.0608 21.7111 35.4181 21.6267 35.7558L21.6201 35.7541Z" fill="white"/>
</svg>
