<svg width="42" height="42" viewBox="0 0 42 42" fill="none" xmlns="http://www.w3.org/2000/svg">
<path d="M37.6786 35.8213L29.464 27.6083C31.8449 24.7499 33.0322 21.0835 32.7788 17.372C32.5254 13.6605 30.8508 10.1896 28.1035 7.68125C25.3562 5.17292 21.7476 3.82033 18.0284 3.90486C14.3092 3.98938 10.7657 5.50451 8.13518 8.13506C5.50463 10.7656 3.98951 14.309 3.90498 18.0282C3.82046 21.7474 5.17304 25.356 7.68137 28.1034C10.1897 30.8507 13.6606 32.5253 17.3722 32.7787C21.0837 33.0321 24.75 31.8448 27.6084 29.4639L35.8214 37.6785C35.9434 37.8004 36.0881 37.8972 36.2475 37.9632C36.4068 38.0292 36.5776 38.0631 36.75 38.0631C36.9225 38.0631 37.0932 38.0292 37.2526 37.9632C37.4119 37.8972 37.5567 37.8004 37.6786 37.6785C37.8006 37.5565 37.8973 37.4118 37.9633 37.2524C38.0293 37.0931 38.0632 36.9223 38.0632 36.7499C38.0632 36.5774 38.0293 36.4067 37.9633 36.2473C37.8973 36.088 37.8006 35.9432 37.6786 35.8213ZM6.56251 18.3749C6.56251 16.0386 7.2553 13.7548 8.55327 11.8122C9.85125 9.86966 11.6961 8.35562 13.8546 7.46156C16.013 6.5675 18.3881 6.33357 20.6795 6.78936C22.9709 7.24515 25.0757 8.37018 26.7277 10.0222C28.3797 11.6742 29.5048 13.779 29.9605 16.0704C30.4163 18.3618 30.1824 20.7369 29.2883 22.8953C28.3943 25.0538 26.8802 26.8987 24.9377 28.1966C22.9951 29.4946 20.7113 30.1874 18.375 30.1874C15.2432 30.1839 12.2407 28.9383 10.0261 26.7238C7.81163 24.5092 6.56598 21.5067 6.56251 18.3749Z" fill="white"/>
</svg>
