<svg width="42" height="42" viewBox="0 0 42 42" fill="none" xmlns="http://www.w3.org/2000/svg">
<path d="M39.375 9.1875V19.6875C39.375 20.0356 39.2367 20.3694 38.9906 20.6156C38.7444 20.8617 38.4106 21 38.0625 21C37.7144 21 37.3806 20.8617 37.1344 20.6156C36.8883 20.3694 36.75 20.0356 36.75 19.6875V12.3555L23.2411 25.8661C23.1192 25.9881 22.9744 26.0849 22.8151 26.151C22.6558 26.217 22.485 26.251 22.3125 26.251C22.14 26.251 21.9692 26.217 21.8099 26.151C21.6506 26.0849 21.5058 25.9881 21.3839 25.8661L15.75 20.2305L4.86609 31.1161C4.61981 31.3624 4.28579 31.5007 3.9375 31.5007C3.58921 31.5007 3.25518 31.3624 3.0089 31.1161C2.76263 30.8698 2.62427 30.5358 2.62427 30.1875C2.62427 29.8392 2.76263 29.5052 3.0089 29.2589L14.8214 17.4464C14.9433 17.3244 15.0881 17.2276 15.2474 17.1615C15.4067 17.0955 15.5775 17.0615 15.75 17.0615C15.9225 17.0615 16.0933 17.0955 16.2526 17.1615C16.4119 17.2276 16.5567 17.3244 16.6786 17.4464L22.3125 23.082L34.8945 10.5H27.5625C27.2144 10.5 26.8806 10.3617 26.6344 10.1156C26.3883 9.86944 26.25 9.5356 26.25 9.1875C26.25 8.8394 26.3883 8.50556 26.6344 8.25942C26.8806 8.01328 27.2144 7.875 27.5625 7.875H38.0625C38.4106 7.875 38.7444 8.01328 38.9906 8.25942C39.2367 8.50556 39.375 8.8394 39.375 9.1875Z" fill="white"/>
</svg>
