<svg width="121" height="62" viewBox="0 0 121 62" fill="none" xmlns="http://www.w3.org/2000/svg">
<path d="M35.6923 33.224V42.4445H32.1569C34.0308 44.3189 35.0989 45.9407 35.38 47.32C35.5531 47.9083 35.564 48.5202 35.4118 49.1122C35.2596 49.7042 34.948 50.2619 34.4993 50.7455C33.5439 51.679 32.2714 52.3658 30.839 52.721C29.2281 53.1548 27.5399 53.3716 25.8421 53.3626H14.0681C10.6452 53.3626 7.96563 53.0847 6.01058 52.5239C4.05554 51.9631 2.68764 51.2406 1.87564 50.3312C1.08455 49.4713 0.659376 48.4272 0.663883 47.3554C0.628312 45.6001 1.12817 43.8648 2.11924 42.3031C3.05785 40.8323 4.26903 39.4863 5.71077 38.3117C7.00846 37.2492 8.42395 36.2852 9.93941 35.4319C11.3448 34.6589 12.4753 34.093 13.3248 33.7242C13.4872 33.6989 13.5747 33.7242 13.5747 33.7798C13.5657 33.8549 13.5236 33.9248 13.456 33.9768C12.5165 34.777 11.6502 35.6314 10.8638 36.5333C10.069 37.4391 9.38491 38.4052 8.82135 39.4182C8.33118 40.2515 8.06103 41.1583 8.02809 42.0808C8.01414 42.4567 8.10779 42.8301 8.30173 43.1719C8.49568 43.5137 8.78468 43.8146 9.14615 44.0512C9.89985 44.5598 11.1491 44.8157 12.8938 44.8191H26.1669C27.5535 44.8191 28.4218 44.6827 28.759 44.42C28.9249 44.3041 29.0387 44.1472 29.0828 43.9735C29.1268 43.7999 29.0987 43.6194 29.0026 43.46C28.8214 43.0801 28.5425 42.7357 28.1844 42.4496C26.0161 42.5219 23.8566 42.1864 21.8758 41.4694C20.435 40.9314 19.2319 40.05 18.4279 38.9433C17.7492 37.9512 17.4452 36.82 17.5535 35.6896C17.6638 34.5292 18.1342 33.4101 18.9214 32.4359C19.7632 31.3897 20.9166 30.5314 22.2756 29.94C23.8129 29.2814 25.5333 28.9526 27.2725 28.9851C27.4723 28.9851 27.591 29.0457 27.6285 29.1619C27.649 29.215 27.6546 29.2712 27.6448 29.3262C27.6351 29.3813 27.6103 29.4339 27.5723 29.4802C26.5188 30.4604 25.9379 31.2064 25.8296 31.7184C25.763 31.9265 25.7846 32.1467 25.8911 32.3436C25.9975 32.5406 26.1826 32.7029 26.4167 32.8047C26.9738 33.032 27.5857 33.1579 28.2094 33.1735C28.9214 33.2038 29.5398 33.2139 30.0832 33.2139L35.6923 33.224Z" fill="#1ABC9C"/>
<path d="M15.8722 56.0883C16.6723 56.0864 17.4491 56.358 18.0737 56.858C18.4115 57.1204 18.681 57.4602 18.8597 57.8488C19.0383 58.2373 19.1208 58.6632 19.1001 59.0904C19.1188 59.5055 19.0349 59.9188 18.8559 60.2938C18.6769 60.6689 18.4082 60.994 18.0737 61.2406C17.4438 61.7291 16.6693 61.9942 15.8722 61.9942C15.0751 61.9942 14.3006 61.7291 13.6707 61.2406C13.3422 60.9904 13.0797 60.6637 12.9062 60.2889C12.7327 59.9142 12.6534 59.5027 12.6751 59.0904C12.6512 58.6659 12.7291 58.2418 12.9023 57.8535C13.0755 57.4652 13.3389 57.1239 13.6707 56.858C14.2961 56.3595 15.0724 56.0881 15.8722 56.0883Z" fill="#1ABC9C"/>
<path d="M22.9125 56.0883C23.7126 56.0864 24.4894 56.358 25.114 56.858C25.4518 57.1204 25.7214 57.4602 25.9 57.8488C26.0786 58.2373 26.1611 58.6632 26.1404 59.0904C26.1591 59.5055 26.0752 59.9188 25.8962 60.2938C25.7172 60.6689 25.4485 60.994 25.114 61.2406C24.486 61.7333 23.7107 62.0008 22.9125 62.0001C22.1157 61.9982 21.3411 61.737 20.7058 61.256C20.369 61.0116 20.0986 60.6869 19.9193 60.3113C19.74 59.9358 19.6576 59.5213 19.6795 59.1057C19.6553 58.6781 19.7361 58.2511 19.9151 57.8619C20.094 57.4728 20.3655 57.1334 20.7058 56.8734C21.334 56.3743 22.1102 56.0981 22.9125 56.0883Z" fill="#1ABC9C"/>
<path d="M56.5171 12.4426C55.7104 12.443 54.9254 12.1819 54.2796 11.6985C53.9398 11.4415 53.6685 11.1049 53.4895 10.7183C53.3105 10.3317 53.2294 9.90696 53.2533 9.48159C53.226 9.06603 53.306 8.65043 53.4858 8.27476C53.6655 7.89909 53.9389 7.57598 54.2796 7.33651C54.9341 6.87451 55.7159 6.62707 56.5171 6.62833C57.3043 6.62493 58.072 6.87304 58.7083 7.33651C59.0476 7.57736 59.3199 7.90072 59.4995 8.27605C59.6791 8.65137 59.76 9.06629 59.7347 9.48159C59.7564 9.90667 59.6743 10.3306 59.4954 10.7169C59.3166 11.1031 59.0465 11.44 58.7083 11.6985C58.08 12.1815 57.3096 12.4431 56.5171 12.4426Z" fill="#1ABC9C"/>
<path d="M53.0065 18.6622C52.1935 18.6679 51.4014 18.4044 50.7537 17.913C50.4248 17.663 50.1622 17.3364 49.9886 16.9616C49.8151 16.5868 49.7359 16.1752 49.7581 15.7628C49.7342 15.3397 49.8121 14.9172 49.9854 14.5305C50.1586 14.1438 50.4221 13.8044 50.7537 13.5407C51.394 13.0318 52.1887 12.7566 53.0065 12.7607C53.8093 12.7626 54.5875 13.0377 55.2132 13.5407C55.5511 13.8006 55.821 14.1385 55.9997 14.5255C56.1785 14.9125 56.2608 15.337 56.2396 15.7628C56.2591 16.178 56.1757 16.5917 55.9966 16.9668C55.8175 17.342 55.5484 17.667 55.2132 17.913C54.58 18.3986 53.8045 18.6619 53.0065 18.6622Z" fill="#1ABC9C"/>
<path d="M60.0223 18.6623C59.2244 18.6525 58.4501 18.3902 57.8105 17.9131C57.4719 17.6704 57.2002 17.346 57.0207 16.97C56.8413 16.5941 56.7599 16.1788 56.7841 15.7629C56.7566 15.3363 56.8361 14.9096 57.0153 14.5216C57.1945 14.1335 57.4679 13.7964 57.8105 13.5408C58.4429 13.0465 59.2197 12.7726 60.0223 12.7608C60.8315 12.7525 61.6179 13.0285 62.2443 13.5408C62.5712 13.8075 62.8301 14.148 62.9996 14.5344C63.1691 14.9207 63.2445 15.3418 63.2194 15.7629C63.2409 16.1732 63.1635 16.5826 62.9939 16.9568C62.8242 17.331 62.5671 17.6589 62.2443 17.9131C61.6103 18.408 60.8266 18.6722 60.0223 18.6623Z" fill="#1ABC9C"/>
<path d="M67.0359 32.7215C67.2967 34.5167 67.0073 36.3364 66.1936 38.0184C65.4953 39.5011 64.3183 40.803 62.7867 41.7866C61.3862 42.6852 59.6651 43.1895 57.8823 43.2238C56.8189 43.2457 55.7601 43.1027 54.7624 42.8023C53.6169 42.4348 52.551 41.9204 51.6052 41.2788C50.8472 41.9421 49.8936 42.4368 48.8347 42.716C47.7142 43.0464 46.5324 43.2182 45.3405 43.2238C44.1017 43.2276 42.8727 43.0451 41.7153 42.6855C40.6315 42.3605 39.6777 41.8002 38.9573 41.0654C37.335 42.2843 35.147 42.8937 32.3932 42.8937H30.7396C30.1923 42.8987 29.6634 42.7334 29.2608 42.4316C29.0504 42.2691 28.8857 42.0715 28.778 41.8524C28.6703 41.6332 28.6221 41.3977 28.6369 41.1619V35.2506C28.624 35.0278 28.6735 34.8055 28.7816 34.6005C28.8896 34.3955 29.0535 34.2132 29.2608 34.0673C29.6653 33.7686 30.1935 33.6053 30.7396 33.6102H32.936C34.184 33.6102 35.045 33.4884 35.4881 33.2395C35.9497 32.9797 36.2661 32.5816 36.3679 32.1324C36.5618 31.5434 36.8015 30.965 37.0854 30.4006C37.5656 29.54 38.2361 28.7584 39.0634 28.095C40.461 26.9882 42.0503 26.054 43.7806 25.3222C44.1862 25.1901 44.3297 25.3222 44.2112 25.6675C43.4527 26.9286 42.8466 28.2467 42.4016 29.6033C42.0075 30.5954 42.0207 31.6649 42.4391 32.6504C42.8446 33.4274 43.8243 33.8134 45.3655 33.8134H46.0955C46.6449 33.7816 47.1864 33.6893 47.7054 33.5391C48.2885 33.3721 48.7839 33.0478 49.1093 32.6199C49.4728 32.0075 49.5243 31.3029 49.2528 30.6597C48.972 29.7049 48.7162 28.8365 48.4728 28.0595C48.2365 27.3671 48.1833 26.6419 48.3169 25.9316C48.5189 25.2008 49.0343 24.5526 49.7707 24.1033C50.9836 23.3523 52.3302 22.7563 53.7641 22.336C54.2446 22.1126 54.4941 22.3106 54.4941 22.9302L54.1947 30.4057C54.1447 31.5382 54.3631 32.3406 54.8186 32.818C55.218 33.2576 55.7982 33.5658 56.4534 33.6864C56.9665 33.7756 57.4888 33.8249 58.0133 33.8337C59.305 33.8337 60.2035 33.5138 60.7214 32.8739C61.2427 32.1642 61.4039 31.3171 61.1706 30.5124L60.3283 26.2515C60.1631 25.5633 60.1748 24.8546 60.3628 24.1703C60.5507 23.4859 60.9107 22.8406 61.4202 22.2751C62.6267 21.0346 64.3447 20.192 66.256 19.9034C66.3086 19.8831 66.3662 19.8726 66.4244 19.8726C66.4827 19.8726 66.5403 19.8831 66.5929 19.9034C66.699 19.9542 66.6865 20.0609 66.5929 20.2234C66.209 20.864 65.9501 21.5493 65.8254 22.2548C65.7394 23.0115 65.7394 23.7732 65.8254 24.5299C65.9065 25.4034 66.0563 26.4953 66.2809 27.7954C66.5056 29.0955 66.7364 30.7409 67.0359 32.7215Z" fill="#1ABC9C"/>
<path d="M84.542 40.4916H87.2749V56.0467H84.153C81.7828 56.1269 79.4208 55.7577 77.2285 54.9642C75.656 54.3792 74.2705 53.4663 73.1924 52.3049C72.3442 51.3618 71.7014 50.2899 71.296 49.1428C70.9941 48.2804 70.8017 47.3914 70.7222 46.492C70.7222 45.7761 70.7222 45.4096 70.7222 45.4096V5.17102C70.7247 5.13838 70.7346 5.1065 70.7513 5.07724C70.768 5.04797 70.7911 5.0219 70.8194 5.00054L77.0826 0.738885C77.3938 0.525802 77.6175 0.611046 77.7537 1.00312C77.8023 1.54861 77.9384 2.37537 78.1621 3.49193C78.4131 4.67584 78.7976 5.835 79.3097 6.95239C79.8473 8.12708 80.6178 9.20917 81.5855 10.1486C82.5793 11.0915 83.8914 11.7307 85.3298 11.9726C85.5724 12.0744 85.7607 12.2547 85.855 12.4755C85.9073 12.5578 85.9223 12.6544 85.8971 12.746C85.8719 12.8376 85.8082 12.9175 85.7188 12.9698C84.634 13.406 83.4995 13.7403 82.3344 13.9671C81.6189 14.0901 80.8818 14.0777 80.1723 13.9307C79.4627 13.7837 78.7973 13.5055 78.2205 13.1147V34.6532C78.147 35.8332 78.4863 37.0048 79.193 38.0113C79.7395 38.7505 80.5109 39.3409 81.4202 39.716C82.1281 40.0083 82.8769 40.2175 83.6473 40.3382L84.542 40.4916Z" fill="#1ABC9C"/>
<path d="M108.561 18.7851C101.659 18.7595 95.9009 24.4301 95.9214 31.1886C95.9489 34.503 97.2683 37.676 99.5991 40.0326C101.93 42.3892 105.088 43.7436 108.402 43.8076C115.073 43.8589 120.939 38.214 120.975 31.6505C121.016 24.4095 115.612 18.8159 108.561 18.7851Z" fill="#1ABC9C"/>
<path d="M119.45 39.0607C117.879 41.0333 115.871 42.6143 113.585 43.6793C113.206 43.91 112.905 44.2498 112.723 44.6543C110.475 48.1849 107.221 50.1915 103.162 50.9818C102.074 51.1922 101.176 51.1562 101.448 49.6013C101.517 49.0132 101.517 48.419 101.448 47.8309C101.448 47.4254 101.674 46.8763 101.13 46.6557C100.709 46.4863 100.406 46.8763 100.104 47.1073C97.6352 48.9906 95.1976 50.9048 92.7036 52.7522C91.7747 53.4399 91.8774 53.8915 92.7344 54.5227C94.7871 56.0622 96.7936 57.6428 98.8668 59.1413C99.5904 59.6544 100.278 60.8501 101.156 60.4139C101.91 60.0393 101.417 58.7974 101.443 57.9507C101.494 55.9493 101.443 55.9493 103.496 55.7646C111.527 55.0051 119.081 47.2715 119.45 39.0607Z" fill="#1ABC9C"/>
<path d="M103.173 19.0467C103.031 18.9512 102.879 18.8703 102.721 18.8055C92.8782 17.8869 83.6872 25.328 82.5634 35.1194C82.2606 37.7776 82.2606 37.7776 84.9702 37.7776C85.312 37.7573 85.6547 37.7573 85.9965 37.7776C86.9562 37.8957 87.2076 37.4902 87.3 36.5409C87.8645 30.7317 90.8614 26.6776 96.2908 24.4504C96.721 24.3549 97.1104 24.1269 97.4044 23.7987C98.8497 21.7108 100.847 20.0656 103.173 19.0467Z" fill="#1ABC9C"/>
<path d="M119.451 39.0607C119.081 47.2715 111.527 55.0102 103.517 55.7389C101.464 55.9237 101.5 55.9237 101.464 57.925C101.438 58.7718 101.931 60.0137 101.177 60.3883C100.299 60.8245 99.6114 59.639 98.8878 59.1156C96.8351 57.6171 94.8132 56.0365 92.7554 54.497C91.8984 53.8658 91.7957 53.4142 92.7246 52.7266C95.2186 50.8843 97.6562 48.9701 100.125 47.0816C100.427 46.8507 100.73 46.4607 101.151 46.63C101.695 46.8507 101.443 47.3998 101.469 47.8052C101.538 48.3933 101.538 48.9875 101.469 49.5757C101.197 51.1152 102.095 51.1665 103.183 50.9561C107.242 50.1658 110.496 48.1593 112.744 44.6286C112.926 44.2242 113.227 43.8843 113.606 43.6536C115.882 42.5933 117.882 41.0215 119.451 39.0607Z" fill="#1ABC9C"/>
<path d="M103.173 19.0468C100.848 20.0679 98.8529 21.7149 97.4098 23.804C97.1158 24.1322 96.7264 24.3601 96.2962 24.4557C90.8668 26.6829 87.8698 30.737 87.3054 36.5461C87.213 37.4955 86.9615 37.9009 86.0019 37.7829C85.6601 37.7626 85.3174 37.7626 84.9755 37.7829C82.266 37.7829 82.266 37.7829 82.5687 35.1246C83.6926 25.3332 92.8836 17.8922 102.726 18.8107C102.883 18.8743 103.032 18.9534 103.173 19.0468Z" fill="#1ABC9C"/>
<path d="M112.107 38.5149C111.715 38.5244 111.325 38.4557 110.96 38.3126C110.595 38.1695 110.262 37.9549 109.981 37.6815C109.7 37.4081 109.476 37.0814 109.323 36.7204C109.17 36.3595 109.09 35.9716 109.089 35.5795C109.078 35.1693 109.149 34.761 109.3 34.3791C109.45 33.9973 109.676 33.6497 109.964 33.3572C110.252 33.0648 110.596 32.8334 110.975 32.6771C111.355 32.5208 111.762 32.4428 112.172 32.4476C112.582 32.4524 112.988 32.5401 113.363 32.7053C113.739 32.8705 114.077 33.1099 114.358 33.409C114.639 33.7082 114.857 34.061 114.998 34.4463C115.139 34.8316 115.201 35.2415 115.18 35.6514C115.176 36.044 115.091 36.4316 114.932 36.7907C114.773 37.1498 114.543 37.4729 114.256 37.7405C113.969 38.0082 113.63 38.2148 113.261 38.3479C112.891 38.481 112.499 38.5378 112.107 38.5149ZM110.105 35.5692C110.091 35.8425 110.135 36.1157 110.233 36.371C110.331 36.6264 110.482 36.8584 110.675 37.0518C110.869 37.2453 111.101 37.396 111.356 37.4942C111.611 37.5924 111.885 37.636 112.158 37.6219C112.701 37.6109 113.221 37.3985 113.616 37.0258C114.012 36.6531 114.255 36.1468 114.298 35.6052C114.274 35.0351 114.031 34.4962 113.62 34.1005C113.209 33.7048 112.662 33.4828 112.091 33.4806C111.823 33.4838 111.557 33.5408 111.311 33.6482C111.065 33.7556 110.843 33.9113 110.657 34.1059C110.472 34.3006 110.328 34.5304 110.233 34.7817C110.138 35.033 110.095 35.3008 110.105 35.5692Z" fill="white"/>
<path d="M101.12 26.8574C101.123 26.0643 101.439 25.3044 101.999 24.743C102.559 24.1817 103.319 23.8645 104.112 23.8605C104.912 23.8666 105.677 24.1904 106.239 24.7606C106.8 25.3308 107.112 26.1008 107.106 26.901C107.1 27.7013 106.776 28.4664 106.206 29.028C105.636 29.5895 104.866 29.9016 104.066 29.8954C103.272 29.8819 102.517 29.5546 101.965 28.9851C101.413 28.4157 101.109 27.6505 101.12 26.8574ZM104.024 28.9101C104.295 28.9254 104.565 28.8871 104.82 28.7974C105.075 28.7078 105.31 28.5686 105.512 28.3879C105.713 28.2071 105.876 27.9884 105.993 27.7443C106.109 27.5001 106.176 27.2353 106.19 26.9652C106.201 26.3956 105.987 25.8448 105.594 25.4325C105.201 25.0202 104.661 24.7798 104.091 24.7637C103.55 24.7754 103.035 24.9955 102.653 25.3779C102.27 25.7604 102.05 26.2757 102.039 26.8164C102.017 27.0853 102.052 27.3557 102.141 27.6102C102.23 27.8648 102.372 28.0979 102.556 28.2946C102.741 28.4913 102.965 28.6472 103.213 28.7523C103.461 28.8574 103.729 28.9094 103.999 28.905L104.024 28.9101Z" fill="white"/>
<path d="M103.85 35.3351C103.984 35.176 104.184 34.904 104.42 34.668C106.914 32.1671 109.415 29.6765 111.923 27.1961C112.205 26.919 112.497 26.3134 112.98 26.7394C113.462 27.1653 112.877 27.5143 112.61 27.7657C110.044 30.3316 107.478 32.8975 104.938 35.4634C104.697 35.6994 104.466 35.9766 104.066 35.8893C103.835 35.8739 103.784 35.6892 103.85 35.3351Z" fill="white"/>
</svg>
