<svg width="41" height="40" viewBox="0 0 41 40" fill="none" xmlns="http://www.w3.org/2000/svg">
<g clip-path="url(#clip0_915_1050)">
<path d="M4.41675 35C4.41675 35 10.6667 30 20.6667 30C30.6667 30 36.9167 35 36.9167 35" stroke="#1ABC9C" stroke-width="2" stroke-linecap="round" stroke-linejoin="round"/>
<path d="M28.1669 11.25C15.6669 17.5 20.6669 30 20.6669 30" stroke="#1ABC9C" stroke-width="2" stroke-linecap="round" stroke-linejoin="round"/>
<path d="M28.1667 11.25C28.1667 11.25 25.4792 9.90938 22.5417 10C19.8136 10.0891 16.8699 11.4359 15.6667 16.25" stroke="#1ABC9C" stroke-width="2" stroke-linecap="round" stroke-linejoin="round"/>
<path d="M28.1667 11.25C28.1667 11.25 25.6667 1.48438 16.9167 6.36719" stroke="#1ABC9C" stroke-width="2" stroke-linecap="round" stroke-linejoin="round"/>
<path d="M36.9167 21.25C36.9167 11.25 28.1667 11.25 28.1667 11.25" stroke="#1ABC9C" stroke-width="2" stroke-linecap="round" stroke-linejoin="round"/>
<path d="M28.1667 11.2501C28.1667 11.2501 30.6667 2.98446 36.9167 7.7079" stroke="#1ABC9C" stroke-width="2" stroke-linecap="round" stroke-linejoin="round"/>
<path d="M29.4167 21.25C29.4167 21.25 32.9496 16.25 28.1746 11.25" stroke="#1ABC9C" stroke-width="2" stroke-linecap="round" stroke-linejoin="round"/>
<path d="M8.79175 25C10.5176 25 11.9167 23.6009 11.9167 21.875C11.9167 20.1491 10.5176 18.75 8.79175 18.75C7.06586 18.75 5.66675 20.1491 5.66675 21.875C5.66675 23.6009 7.06586 25 8.79175 25Z" stroke="#1ABC9C" stroke-width="2" stroke-linecap="round" stroke-linejoin="round"/>
</g>
<defs>
<clipPath id="clip0_915_1050">
<rect width="40" height="40" fill="white" transform="translate(0.666748)"/>
</clipPath>
</defs>
</svg>
