<svg width="41" height="40" viewBox="0 0 41 40" fill="none" xmlns="http://www.w3.org/2000/svg">
<g clip-path="url(#clip0_915_651)">
<path d="M15.6668 11.25C15.6668 9.92392 16.1936 8.65215 17.1313 7.71447C18.0689 6.77678 19.3407 6.25 20.6668 6.25C21.9929 6.25 23.2647 6.77678 24.2023 7.71447C25.14 8.65215 25.6668 9.92392 25.6668 11.25L3.66993 27.75C3.46026 27.9073 3.30532 28.1264 3.22701 28.3765C3.14871 28.6267 3.15101 28.8951 3.23357 29.1438C3.31614 29.3925 3.47481 29.609 3.68714 29.7627C3.89946 29.9163 4.15472 29.9993 4.4168 30H36.9168C37.179 29.9997 37.4345 29.9169 37.6471 29.7634C37.8597 29.6098 38.0186 29.3934 38.1013 29.1445C38.1841 28.8957 38.1865 28.6272 38.1083 28.3769C38.03 28.1266 37.875 27.9073 37.6652 27.75L20.6668 15" stroke="#1ABC9C" stroke-width="2" stroke-linecap="round" stroke-linejoin="round"/>
</g>
<defs>
<clipPath id="clip0_915_651">
<rect width="40" height="40" fill="white" transform="translate(0.666748)"/>
</clipPath>
</defs>
</svg>
