<svg width="41" height="40" viewBox="0 0 41 40" fill="none" xmlns="http://www.w3.org/2000/svg">
<g clip-path="url(#clip0_915_1074)">
<path d="M22.877 17.4562C18.9582 10.9234 24.1832 4.3921 35.2879 5.04523C35.941 16.1499 29.4098 21.3749 22.877 17.4562Z" stroke="#1ABC9C" stroke-width="2" stroke-linecap="round" stroke-linejoin="round"/>
<path d="M15.6458 17.8124C18.4958 13.0608 14.6958 8.31082 6.61925 8.78582C6.14112 16.8593 10.8911 20.6593 15.6458 17.8124Z" stroke="#1ABC9C" stroke-width="2" stroke-linecap="round" stroke-linejoin="round"/>
<path d="M9.08325 23.75H31.5833" stroke="#1ABC9C" stroke-width="2" stroke-linecap="round" stroke-linejoin="round"/>
<path d="M29.0833 23.75L26.8004 34.0219C26.7386 34.2994 26.584 34.5475 26.3621 34.7254C26.1403 34.9032 25.8644 35.0001 25.5801 35H15.0864C14.8021 35.0001 14.5262 34.9032 14.3044 34.7254C14.0825 34.5475 13.9279 34.2994 13.8661 34.0219L11.5833 23.75" stroke="#1ABC9C" stroke-width="2" stroke-linecap="round" stroke-linejoin="round"/>
<path d="M22.877 17.4563L16.5833 23.75" stroke="#1ABC9C" stroke-width="2" stroke-linecap="round" stroke-linejoin="round"/>
<path d="M15.6426 17.8093L19.0832 21.25" stroke="#1ABC9C" stroke-width="2" stroke-linecap="round" stroke-linejoin="round"/>
</g>
<defs>
<clipPath id="clip0_915_1074">
<rect width="40" height="40" fill="white" transform="translate(0.333252)"/>
</clipPath>
</defs>
</svg>
