<svg width="41" height="40" viewBox="0 0 41 40" fill="none" xmlns="http://www.w3.org/2000/svg">
<g clip-path="url(#clip0_915_1214)">
<path d="M23.1667 28.75H5.66675C5.00371 28.75 4.36782 28.4866 3.89898 28.0178C3.43014 27.5489 3.16675 26.913 3.16675 26.25V15C3.16675 14.337 3.43014 13.7011 3.89898 13.2322C4.36782 12.7634 5.00371 12.5 5.66675 12.5H23.1667" stroke="#1ABC9C" stroke-width="2" stroke-linecap="round" stroke-linejoin="round"/>
<path d="M18.1667 33.75H10.6667" stroke="#1ABC9C" stroke-width="2" stroke-linecap="round" stroke-linejoin="round"/>
<path d="M33.1667 11.25H28.1667" stroke="#1ABC9C" stroke-width="2" stroke-linecap="round" stroke-linejoin="round"/>
<path d="M33.1667 16.25H28.1667" stroke="#1ABC9C" stroke-width="2" stroke-linecap="round" stroke-linejoin="round"/>
<path d="M36.9167 6.25H24.4167C23.7264 6.25 23.1667 6.80964 23.1667 7.5V32.5C23.1667 33.1904 23.7264 33.75 24.4167 33.75H36.9167C37.6071 33.75 38.1667 33.1904 38.1667 32.5V7.5C38.1667 6.80964 37.6071 6.25 36.9167 6.25Z" stroke="#1ABC9C" stroke-width="2" stroke-linecap="round" stroke-linejoin="round"/>
<path d="M14.4167 28.75V33.75" stroke="#1ABC9C" stroke-width="2" stroke-linecap="round" stroke-linejoin="round"/>
<path d="M30.6667 30C31.7023 30 32.5417 29.1605 32.5417 28.125C32.5417 27.0895 31.7023 26.25 30.6667 26.25C29.6312 26.25 28.7917 27.0895 28.7917 28.125C28.7917 29.1605 29.6312 30 30.6667 30Z" fill="#1ABC9C"/>
</g>
<defs>
<clipPath id="clip0_915_1214">
<rect width="40" height="40" fill="white" transform="translate(0.666748)"/>
</clipPath>
</defs>
</svg>
