<svg width="40" height="40" viewBox="0 0 40 40" fill="none" xmlns="http://www.w3.org/2000/svg">
<g clip-path="url(#clip0_915_1429)">
<path d="M12.5 21.25H27.5" stroke="#1ABC9C" stroke-width="2" stroke-linecap="round" stroke-linejoin="round"/>
<path d="M7.5 15V11.25C7.5 9.92392 8.02678 8.65215 8.96447 7.71447C9.90215 6.77678 11.1739 6.25 12.5 6.25H27.5C28.8261 6.25 30.0979 6.77678 31.0355 7.71447C31.9732 8.65215 32.5 9.92392 32.5 11.25V15" stroke="#1ABC9C" stroke-width="2" stroke-linecap="round" stroke-linejoin="round"/>
<path d="M12.5 26.25V20C12.5 19.0111 12.2068 18.0444 11.6574 17.2222C11.1079 16.3999 10.3271 15.759 9.41342 15.3806C8.49979 15.0022 7.49446 14.9031 6.52455 15.0961C5.55465 15.289 4.66373 15.7652 3.96447 16.4645C3.26521 17.1637 2.789 18.0546 2.59608 19.0246C2.40315 19.9945 2.50217 20.9998 2.8806 21.9134C3.25904 22.8271 3.89991 23.6079 4.72215 24.1574C5.5444 24.7068 6.5111 25 7.5 25V31.25C7.5 31.5815 7.6317 31.8995 7.86612 32.1339C8.10054 32.3683 8.41848 32.5 8.75 32.5H31.25C31.5815 32.5 31.8995 32.3683 32.1339 32.1339C32.3683 31.8995 32.5 31.5815 32.5 31.25V25C33.4889 25 34.4556 24.7068 35.2779 24.1574C36.1001 23.6079 36.741 22.8271 37.1194 21.9134C37.4978 20.9998 37.5969 19.9945 37.4039 19.0246C37.211 18.0546 36.7348 17.1637 36.0355 16.4645C35.3363 15.7652 34.4454 15.289 33.4755 15.0961C32.5056 14.9031 31.5002 15.0022 30.5866 15.3806C29.673 15.759 28.8921 16.3999 28.3427 17.2222C27.7933 18.0444 27.5 19.0111 27.5 20V26.25" stroke="#1ABC9C" stroke-width="2" stroke-linecap="round" stroke-linejoin="round"/>
</g>
<defs>
<clipPath id="clip0_915_1429">
<rect width="40" height="40" fill="white"/>
</clipPath>
</defs>
</svg>
