<svg width="40" height="40" viewBox="0 0 40 40" fill="none" xmlns="http://www.w3.org/2000/svg">
<g clip-path="url(#clip0_915_3307)">
<path d="M8.75 3.75C8.75 5.73912 9.54018 7.64678 10.9467 9.0533C12.3532 10.4598 14.2609 11.25 16.25 11.25H23.75C25.7391 11.25 27.6468 10.4598 29.0533 9.0533C30.4598 7.64678 31.25 5.73912 31.25 3.75" stroke="#1ABC9C" stroke-width="2" stroke-linecap="round" stroke-linejoin="round"/>
<path d="M27.5 25H12.5C9.73858 25 7.5 27.2386 7.5 30C7.5 32.7614 9.73858 35 12.5 35H27.5C30.2614 35 32.5 32.7614 32.5 30C32.5 27.2386 30.2614 25 27.5 25Z" stroke="#1ABC9C" stroke-width="2" stroke-linecap="round" stroke-linejoin="round"/>
<path d="M12.5 30H15" stroke="#1ABC9C" stroke-width="2" stroke-linecap="round" stroke-linejoin="round"/>
<path d="M25 30H27.5" stroke="#1ABC9C" stroke-width="2" stroke-linecap="round" stroke-linejoin="round"/>
<path d="M15.625 21.25C16.6605 21.25 17.5 20.4105 17.5 19.375C17.5 18.3395 16.6605 17.5 15.625 17.5C14.5895 17.5 13.75 18.3395 13.75 19.375C13.75 20.4105 14.5895 21.25 15.625 21.25Z" fill="#1ABC9C"/>
<path d="M24.375 21.25C25.4105 21.25 26.25 20.4105 26.25 19.375C26.25 18.3395 25.4105 17.5 24.375 17.5C23.3395 17.5 22.5 18.3395 22.5 19.375C22.5 20.4105 23.3395 21.25 24.375 21.25Z" fill="#1ABC9C"/>
<path d="M25 11.25H30.1219C31.8545 11.2495 33.5339 11.8489 34.8746 12.9464C36.2153 14.0439 37.1347 15.5717 37.4766 17.2703C37.5103 17.4506 37.5039 17.6361 37.4578 17.8137C37.4118 17.9913 37.3273 18.1565 37.2102 18.2977C37.0931 18.439 36.9464 18.5527 36.7805 18.6308C36.6145 18.709 36.4334 18.7497 36.25 18.75H30" stroke="#1ABC9C" stroke-width="2" stroke-linecap="round" stroke-linejoin="round"/>
<path d="M15 11.25H9.87817C8.14553 11.2495 6.46617 11.8489 5.12544 12.9464C3.78471 14.0439 2.86532 15.5717 2.52348 17.2703C2.48978 17.4506 2.49617 17.6361 2.5422 17.8137C2.58823 17.9913 2.67278 18.1565 2.78984 18.2977C2.9069 18.439 3.05361 18.5527 3.21956 18.6308C3.3855 18.709 3.56661 18.7497 3.75004 18.75H10" stroke="#1ABC9C" stroke-width="2" stroke-linecap="round" stroke-linejoin="round"/>
<path d="M10 25.6687V16.25C10 14.9239 10.5268 13.6521 11.4645 12.7145C12.4021 11.7768 13.6739 11.25 15 11.25H25C26.3261 11.25 27.5979 11.7768 28.5355 12.7145C29.4732 13.6521 30 14.9239 30 16.25V25.6687" stroke="#1ABC9C" stroke-width="2" stroke-linecap="round" stroke-linejoin="round"/>
</g>
<defs>
<clipPath id="clip0_915_3307">
<rect width="40" height="40" fill="white"/>
</clipPath>
</defs>
</svg>
