<svg width="41" height="40" viewBox="0 0 41 40" fill="none" xmlns="http://www.w3.org/2000/svg">
<g clip-path="url(#clip0_915_3055)">
<path d="M7.83325 32.5H2.83325C2.50173 32.5 2.18379 32.3683 1.94937 32.1339C1.71495 31.8995 1.58325 31.5815 1.58325 31.25V25C1.58325 24.6685 1.71495 24.3505 1.94937 24.1161C2.18379 23.8817 2.50173 23.75 2.83325 23.75H7.83325" stroke="#1ABC9C" stroke-width="2" stroke-linecap="round" stroke-linejoin="round"/>
<path d="M17.8333 25H22.8333L33.302 22.5922C33.6869 22.4867 34.0909 22.4714 34.4827 22.5475C34.8744 22.6236 35.2434 22.789 35.5608 23.0308C35.8783 23.2727 36.1356 23.5845 36.313 23.942C36.4903 24.2995 36.5828 24.6931 36.5833 25.0922C36.5835 25.5741 36.4493 26.0464 36.196 26.4563C35.9426 26.8662 35.58 27.1973 35.1489 27.4125L29.0833 30L19.0833 32.5H7.83325V23.75L11.7395 19.8438C12.0886 19.4958 12.503 19.2201 12.9587 19.0325C13.4145 18.8448 13.9028 18.7488 14.3958 18.75H22.2083C23.0371 18.75 23.8319 19.0793 24.418 19.6653C25.004 20.2514 25.3333 21.0462 25.3333 21.875C25.3333 22.7038 25.004 23.4987 24.418 24.0847C23.8319 24.6708 23.0371 25 22.2083 25H17.8333Z" stroke="#1ABC9C" stroke-width="2" stroke-linecap="round" stroke-linejoin="round"/>
<path d="M30.3333 3.75V16.25" stroke="#1ABC9C" stroke-width="2" stroke-linecap="round" stroke-linejoin="round"/>
<path d="M25.3333 8.75L30.3333 3.75L35.3333 8.75" stroke="#1ABC9C" stroke-width="2" stroke-linecap="round" stroke-linejoin="round"/>
</g>
<defs>
<clipPath id="clip0_915_3055">
<rect width="40" height="40" fill="white" transform="translate(0.333252)"/>
</clipPath>
</defs>
</svg>
