<svg width="23" height="35" viewBox="0 0 23 35" fill="none" xmlns="http://www.w3.org/2000/svg">
<path d="M19.0059 0.00634766L4.00586 0.00634766C3.0113 0.00634766 2.05747 0.401436 1.35421 1.1047C0.650948 1.80796 0.255859 2.76179 0.255859 3.75635L0.255859 31.2563C0.255859 32.2509 0.650948 33.2047 1.35421 33.908C2.05747 34.6113 3.0113 35.0063 4.00586 35.0063H19.0059C20.0004 35.0063 20.9542 34.6113 21.6575 33.908C22.3608 33.2047 22.7559 32.2509 22.7559 31.2563V3.75635C22.7559 2.76179 22.3608 1.80796 21.6575 1.1047C20.9542 0.401436 20.0004 0.00634766 19.0059 0.00634766ZM20.2559 31.2563C20.2559 31.5879 20.1242 31.9058 19.8897 32.1402C19.6553 32.3747 19.3374 32.5063 19.0059 32.5063H4.00586C3.67434 32.5063 3.3564 32.3747 3.12198 32.1402C2.88756 31.9058 2.75586 31.5879 2.75586 31.2563L2.75586 3.75635C2.75586 3.42483 2.88756 3.10688 3.12198 2.87246C3.3564 2.63804 3.67434 2.50635 4.00586 2.50635L19.0059 2.50635C19.3374 2.50635 19.6553 2.63804 19.8897 2.87246C20.1242 3.10688 20.2559 3.42483 20.2559 3.75635V31.2563ZM13.3809 6.88135C13.3809 7.25219 13.2709 7.6147 13.0649 7.92304C12.8588 8.23138 12.566 8.47171 12.2234 8.61362C11.8808 8.75554 11.5038 8.79267 11.1401 8.72032C10.7764 8.64797 10.4423 8.4694 10.18 8.20717C9.91781 7.94495 9.73923 7.61086 9.66689 7.24714C9.59454 6.88343 9.63167 6.50643 9.77359 6.16382C9.9155 5.8212 10.1558 5.52837 10.4642 5.32234C10.7725 5.11631 11.135 5.00635 11.5059 5.00635C12.0031 5.00635 12.4801 5.20389 12.8317 5.55552C13.1833 5.90715 13.3809 6.38407 13.3809 6.88135Z" fill="white"/>
</svg>
