<svg width="20" height="21" viewBox="0 0 20 21" fill="none" xmlns="http://www.w3.org/2000/svg">
<g clip-path="url(#clip0_4020_9493)">
<path d="M1.25 9.06738H18.75" stroke="#727272" stroke-width="1.5" stroke-linecap="round" stroke-linejoin="round"/>
<path d="M17.5 14.0674V15.9424C17.5 16.1081 17.4342 16.2671 17.3169 16.3843C17.1997 16.5015 17.0408 16.5674 16.875 16.5674H15C14.8342 16.5674 14.6753 16.5015 14.5581 16.3843C14.4408 16.2671 14.375 16.1081 14.375 15.9424V14.0674" stroke="#727272" stroke-width="1.5" stroke-linecap="round" stroke-linejoin="round"/>
<path d="M5.625 14.0674V15.9424C5.625 16.1081 5.55915 16.2671 5.44194 16.3843C5.32473 16.5015 5.16576 16.5674 5 16.5674H3.125C2.95924 16.5674 2.80027 16.5015 2.68306 16.3843C2.56585 16.2671 2.5 16.1081 2.5 15.9424V14.0674" stroke="#727272" stroke-width="1.5" stroke-linecap="round" stroke-linejoin="round"/>
<path d="M5 11.5674H6.25" stroke="#727272" stroke-width="1.5" stroke-linecap="round" stroke-linejoin="round"/>
<path d="M13.75 11.5674H15" stroke="#727272" stroke-width="1.5" stroke-linecap="round" stroke-linejoin="round"/>
<path d="M17.5 9.06738L15.1648 3.81348C15.1157 3.70302 15.0356 3.60917 14.9343 3.54331C14.8329 3.47744 14.7146 3.44238 14.5938 3.44238H5.40625C5.28537 3.44238 5.16708 3.47744 5.06572 3.54331C4.96435 3.60917 4.88426 3.70302 4.83516 3.81348L2.5 9.06738V14.0674H17.5V9.06738Z" stroke="#727272" stroke-width="1.5" stroke-linecap="round" stroke-linejoin="round"/>
</g>
<defs>
<clipPath id="clip0_4020_9493">
<rect width="20" height="20" fill="white" transform="translate(0 0.317383)"/>
</clipPath>
</defs>
</svg>
