<svg width="24" height="24" viewBox="0 0 24 24" fill="none" xmlns="http://www.w3.org/2000/svg">
<g clip-path="url(#clip0_4146_1505)">
<path d="M12 15.75C14.0711 15.75 15.75 14.0711 15.75 12C15.75 9.92893 14.0711 8.25 12 8.25C9.92893 8.25 8.25 9.92893 8.25 12C8.25 14.0711 9.92893 15.75 12 15.75Z" stroke="#565656" stroke-linecap="round" stroke-linejoin="round"/>
<path d="M3.88352 16.6959C3.46912 15.9821 3.15164 15.2163 2.93945 14.4187L4.51258 12.4499C4.49477 12.149 4.49477 11.8472 4.51258 11.5462L2.94039 9.57744C3.15221 8.7797 3.46904 8.01363 3.88258 7.29932L6.38664 7.01807C6.5866 6.79278 6.79979 6.57959 7.02508 6.37963L7.30633 3.8765C8.01961 3.46494 8.78443 3.14999 9.5807 2.93994L11.5495 4.51307C11.8504 4.49525 12.1522 4.49525 12.4532 4.51307L14.422 2.94088C15.2197 3.1527 15.9858 3.46953 16.7001 3.88307L16.9813 6.38713C17.2066 6.58709 17.4198 6.80028 17.6198 7.02557L20.1229 7.30682C20.5373 8.0206 20.8548 8.78639 21.067 9.584L19.4938 11.5528C19.5116 11.8537 19.5116 12.1555 19.4938 12.4565L21.066 14.4253C20.8557 15.2228 20.5404 15.9888 20.1285 16.7034L17.6245 16.9846C17.4245 17.2099 17.2113 17.4231 16.986 17.6231L16.7048 20.1262C15.991 20.5406 15.2252 20.8581 14.4276 21.0703L12.4588 19.4971C12.1578 19.5149 11.8561 19.5149 11.5551 19.4971L9.58633 21.0693C8.78882 20.859 8.02276 20.5437 7.3082 20.1318L7.02695 17.6278C6.80167 17.4278 6.58848 17.2146 6.38852 16.9893L3.88352 16.6959Z" stroke="#565656" stroke-linecap="round" stroke-linejoin="round"/>
</g>
<defs>
<clipPath id="clip0_4146_1505">
<rect width="24" height="24" fill="white"/>
</clipPath>
</defs>
</svg>
