<svg width="24" height="25" viewBox="0 0 24 25" fill="none" xmlns="http://www.w3.org/2000/svg">
<g clip-path="url(#clip0_2136_9854)">
<path d="M12 6.5C13.2426 6.5 14.25 5.49264 14.25 4.25C14.25 3.00736 13.2426 2 12 2C10.7574 2 9.75 3.00736 9.75 4.25C9.75 5.49264 10.7574 6.5 12 6.5Z" stroke="#1ABC9C" stroke-width="1.5" stroke-linecap="round" stroke-linejoin="round"/>
<path d="M3.65592 10.1469C2.55998 9.64063 2.91998 8 4.12467 8H19.8747C21.0812 8 21.4412 9.64063 20.3434 10.1469L14.9997 12.5L17.1437 20.6497C17.2648 20.9193 17.2748 21.2258 17.1717 21.5028C17.0686 21.7798 16.8607 22.0052 16.5928 22.13C16.3249 22.2549 16.0186 22.2694 15.7401 22.1703C15.4616 22.0711 15.2334 21.8664 15.1047 21.6003L11.9997 16.25L8.89467 21.6003C8.76595 21.8664 8.53769 22.0711 8.25922 22.1703C7.98076 22.2694 7.67447 22.2549 7.40657 22.13C7.13868 22.0052 6.9307 21.7798 6.82759 21.5028C6.72449 21.2258 6.73455 20.9193 6.8556 20.6497L8.99967 12.5L3.65592 10.1469Z" stroke="#1ABC9C" stroke-width="1.5" stroke-linecap="round" stroke-linejoin="round"/>
</g>
<defs>
<clipPath id="clip0_2136_9854">
<rect width="24" height="24" fill="white" transform="translate(0 0.5)"/>
</clipPath>
</defs>
</svg>
