<svg width="32" height="33" viewBox="0 0 32 33" fill="none" xmlns="http://www.w3.org/2000/svg">
<g clip-path="url(#clip0_2147_2418)">
<path d="M2 14.5H30" stroke="#1ABC9C" stroke-width="2" stroke-linecap="round" stroke-linejoin="round"/>
<path d="M28 22.5V25.5C28 25.7652 27.8946 26.0196 27.7071 26.2071C27.5196 26.3946 27.2652 26.5 27 26.5H24C23.7348 26.5 23.4804 26.3946 23.2929 26.2071C23.1054 26.0196 23 25.7652 23 25.5V22.5" stroke="#1ABC9C" stroke-width="2" stroke-linecap="round" stroke-linejoin="round"/>
<path d="M9 22.5V25.5C9 25.7652 8.89464 26.0196 8.70711 26.2071C8.51957 26.3946 8.26522 26.5 8 26.5H5C4.73478 26.5 4.48043 26.3946 4.29289 26.2071C4.10536 26.0196 4 25.7652 4 25.5V22.5" stroke="#1ABC9C" stroke-width="2" stroke-linecap="round" stroke-linejoin="round"/>
<path d="M8 18.5H10" stroke="#1ABC9C" stroke-width="2" stroke-linecap="round" stroke-linejoin="round"/>
<path d="M22 18.5H24" stroke="#1ABC9C" stroke-width="2" stroke-linecap="round" stroke-linejoin="round"/>
<path d="M28 14.5L24.2638 6.09375C24.1852 5.91702 24.057 5.76686 23.8949 5.66148C23.7327 5.55609 23.5434 5.5 23.35 5.5H8.65C8.45659 5.5 8.26733 5.55609 8.10514 5.66148C7.94296 5.76686 7.81482 5.91702 7.73625 6.09375L4 14.5V22.5H28V14.5Z" stroke="#1ABC9C" stroke-width="2" stroke-linecap="round" stroke-linejoin="round"/>
</g>
<defs>
<clipPath id="clip0_2147_2418">
<rect width="32" height="32" fill="white" transform="translate(0 0.5)"/>
</clipPath>
</defs>
</svg>
