<svg width="32" height="33" viewBox="0 0 32 33" fill="none" xmlns="http://www.w3.org/2000/svg">
<g clip-path="url(#clip0_2147_2186)">
<path d="M18 23.5H4C3.46957 23.5 2.96086 23.2893 2.58579 22.9142C2.21071 22.5391 2 22.0304 2 21.5V12.5C2 11.9696 2.21071 11.4609 2.58579 11.0858C2.96086 10.7107 3.46957 10.5 4 10.5H18" stroke="#1ABC9C" stroke-width="2" stroke-linecap="round" stroke-linejoin="round"/>
<path d="M14 27.5H8" stroke="#1ABC9C" stroke-width="2" stroke-linecap="round" stroke-linejoin="round"/>
<path d="M26 9.5H22" stroke="#1ABC9C" stroke-width="2" stroke-linecap="round" stroke-linejoin="round"/>
<path d="M26 13.5H22" stroke="#1ABC9C" stroke-width="2" stroke-linecap="round" stroke-linejoin="round"/>
<path d="M29 5.5H19C18.4477 5.5 18 5.94772 18 6.5V26.5C18 27.0523 18.4477 27.5 19 27.5H29C29.5523 27.5 30 27.0523 30 26.5V6.5C30 5.94772 29.5523 5.5 29 5.5Z" stroke="#1ABC9C" stroke-width="2" stroke-linecap="round" stroke-linejoin="round"/>
<path d="M11 23.5V27.5" stroke="#1ABC9C" stroke-width="2" stroke-linecap="round" stroke-linejoin="round"/>
<path d="M24 24.5C24.8284 24.5 25.5 23.8284 25.5 23C25.5 22.1716 24.8284 21.5 24 21.5C23.1716 21.5 22.5 22.1716 22.5 23C22.5 23.8284 23.1716 24.5 24 24.5Z" fill="#1ABC9C"/>
</g>
<defs>
<clipPath id="clip0_2147_2186">
<rect width="32" height="32" fill="white" transform="translate(0 0.5)"/>
</clipPath>
</defs>
</svg>
