<svg width="32" height="33" viewBox="0 0 32 33" fill="none" xmlns="http://www.w3.org/2000/svg">
<g clip-path="url(#clip0_2147_2013)">
<path d="M11.9999 9.5C11.9999 8.43913 12.4214 7.42172 13.1715 6.67157C13.9217 5.92143 14.9391 5.5 15.9999 5.5C17.0608 5.5 18.0782 5.92143 18.8284 6.67157C19.5785 7.42172 19.9999 8.43913 19.9999 9.5L2.40245 22.7C2.23471 22.8258 2.11076 23.0011 2.04812 23.2012C1.98547 23.4013 1.98731 23.6161 2.05336 23.815C2.11942 24.014 2.24635 24.1872 2.41621 24.3101C2.58608 24.4331 2.79028 24.4995 2.99995 24.5H28.9999C29.2097 24.4997 29.4141 24.4335 29.5842 24.3107C29.7542 24.1879 29.8814 24.0147 29.9476 23.8156C30.0138 23.6166 30.0157 23.4017 29.9531 23.2015C29.8905 23.0013 29.7665 22.8259 29.5987 22.7L15.9999 12.5" stroke="#1ABC9C" stroke-width="2" stroke-linecap="round" stroke-linejoin="round"/>
</g>
<defs>
<clipPath id="clip0_2147_2013">
<rect width="32" height="32" fill="white" transform="translate(0 0.5)"/>
</clipPath>
</defs>
</svg>
