<svg width="32" height="33" viewBox="0 0 32 33" fill="none" xmlns="http://www.w3.org/2000/svg">
<g clip-path="url(#clip0_2147_2200)">
<path d="M6.00867 12.5C5.85828 12.5015 5.7095 12.469 5.5734 12.4049C5.43731 12.3409 5.3174 12.247 5.22262 12.1303C5.12783 12.0135 5.0606 11.8769 5.02594 11.7305C4.99128 11.5842 4.99008 11.4319 5.02242 11.285C5.83492 7.44375 10.4399 4.5 15.9999 4.5C21.5599 4.5 26.1649 7.44375 26.9774 11.285C27.0098 11.4319 27.0086 11.5842 26.9739 11.7305C26.9392 11.8769 26.872 12.0135 26.7772 12.1303C26.6824 12.247 26.5625 12.3409 26.4264 12.4049C26.2903 12.469 26.1416 12.5015 25.9912 12.5H6.00867Z" stroke="#1ABC9C" stroke-width="2" stroke-linecap="round" stroke-linejoin="round"/>
<path d="M3 22.5L8.5 20.5L13.5 22.5L18.5 20.5L23.5 22.5L29 20.5" stroke="#1ABC9C" stroke-width="2" stroke-linecap="round" stroke-linejoin="round"/>
<path d="M3 16.5H29" stroke="#1ABC9C" stroke-width="2" stroke-linecap="round" stroke-linejoin="round"/>
<path d="M26 21.5917V23.5004C26 24.5613 25.5786 25.5787 24.8284 26.3289C24.0783 27.079 23.0609 27.5004 22 27.5004H10C8.93913 27.5004 7.92172 27.079 7.17157 26.3289C6.42143 25.5787 6 24.5613 6 23.5004V21.4092" stroke="#1ABC9C" stroke-width="2" stroke-linecap="round" stroke-linejoin="round"/>
</g>
<defs>
<clipPath id="clip0_2147_2200">
<rect width="32" height="32" fill="white" transform="translate(0 0.5)"/>
</clipPath>
</defs>
</svg>
