<svg width="32" height="33" viewBox="0 0 32 33" fill="none" xmlns="http://www.w3.org/2000/svg">
<g clip-path="url(#clip0_2147_1631)">
<path d="M10 17.5H22" stroke="#1ABC9C" stroke-width="2" stroke-linecap="round" stroke-linejoin="round"/>
<path d="M6 12.5V9.5C6 8.43913 6.42143 7.42172 7.17157 6.67157C7.92172 5.92143 8.93913 5.5 10 5.5H22C23.0609 5.5 24.0783 5.92143 24.8284 6.67157C25.5786 7.42172 26 8.43913 26 9.5V12.5" stroke="#1ABC9C" stroke-width="2" stroke-linecap="round" stroke-linejoin="round"/>
<path d="M10 21.5V16.5C10 15.7089 9.76541 14.9355 9.32588 14.2777C8.88636 13.6199 8.26164 13.1072 7.53074 12.8045C6.79983 12.5017 5.99556 12.4225 5.21964 12.5769C4.44372 12.7312 3.73098 13.1122 3.17157 13.6716C2.61216 14.231 2.2312 14.9437 2.07686 15.7196C1.92252 16.4956 2.00173 17.2998 2.30448 18.0307C2.60723 18.7616 3.11992 19.3864 3.77772 19.8259C4.43552 20.2654 5.20888 20.5 6 20.5V25.5C6 25.7652 6.10536 26.0196 6.2929 26.2071C6.48043 26.3946 6.73479 26.5 7 26.5H25C25.2652 26.5 25.5196 26.3946 25.7071 26.2071C25.8946 26.0196 26 25.7652 26 25.5V20.5C26.7911 20.5 27.5645 20.2654 28.2223 19.8259C28.8801 19.3864 29.3928 18.7616 29.6955 18.0307C29.9983 17.2998 30.0775 16.4956 29.9231 15.7196C29.7688 14.9437 29.3878 14.231 28.8284 13.6716C28.269 13.1122 27.5563 12.7312 26.7804 12.5769C26.0044 12.4225 25.2002 12.5017 24.4693 12.8045C23.7384 13.1072 23.1137 13.6199 22.6741 14.2777C22.2346 14.9355 22 15.7089 22 16.5V21.5" stroke="#1ABC9C" stroke-width="2" stroke-linecap="round" stroke-linejoin="round"/>
</g>
<defs>
<clipPath id="clip0_2147_1631">
<rect width="32" height="32" fill="white" transform="translate(0 0.5)"/>
</clipPath>
</defs>
</svg>
