<svg width="21" height="20" viewBox="0 0 21 20" fill="none" xmlns="http://www.w3.org/2000/svg">
<path d="M10.5022 15.0872L14.7772 17.7161C14.8881 17.7834 15.0165 17.8163 15.1461 17.8107C15.2757 17.8051 15.4008 17.7612 15.5055 17.6845C15.6102 17.6078 15.6898 17.5019 15.7342 17.38C15.7787 17.2581 15.786 17.1257 15.7553 16.9997L14.5928 12.0942L18.3975 8.81294C18.4945 8.72776 18.5644 8.61604 18.5986 8.49157C18.6329 8.36709 18.6299 8.23532 18.5901 8.11252C18.5503 7.98971 18.4754 7.88125 18.3747 7.80052C18.2739 7.71979 18.1518 7.67033 18.0232 7.65825L13.0303 7.252L11.1068 2.59575C11.0578 2.47562 10.9741 2.37282 10.8664 2.30046C10.7587 2.2281 10.6319 2.18945 10.5022 2.18945C10.3724 2.18945 10.2456 2.2281 10.1379 2.30046C10.0302 2.37282 9.9465 2.47562 9.89746 2.59575L7.97403 7.252L2.98106 7.65825C2.85166 7.66961 2.72847 7.71885 2.62689 7.79982C2.52532 7.88079 2.44985 7.9899 2.40992 8.11351C2.37 8.23712 2.36738 8.36976 2.4024 8.49484C2.43743 8.61993 2.50853 8.73193 2.60684 8.81684L6.41153 12.0981L5.24903 16.9997C5.21829 17.1257 5.22562 17.2581 5.27009 17.38C5.31455 17.5019 5.39415 17.6078 5.49883 17.6845C5.60351 17.7612 5.72857 17.8051 5.85821 17.8107C5.98784 17.8163 6.11623 17.7834 6.22715 17.7161L10.5022 15.0872Z" stroke="white" stroke-linecap="round" stroke-linejoin="round"/>
</svg>
